<?xml version="1.0" encoding="utf-8"?>
<!-- Generator: Adobe Illustrator 27.9.0, SVG Export Plug-In . SVG Version: 6.00 Build 0)  -->
<svg version="1.1" id="Layer_1" xmlns="http://www.w3.org/2000/svg" xmlns:xlink="http://www.w3.org/1999/xlink" x="0px" y="0px"
	 viewBox="0 0 842.9 841.89" style="enable-background:new 0 0 842.9 841.89;" xml:space="preserve">
<style type="text/css">
	.st0{fill:#FFFFFF;}
</style>
<g>
	<path class="st0" d="M347.99,536.98c49.19,0,96.68,0,145.12,0c-10-17.14-21.31-32.16-35.57-44.56
		c-27.05-23.53-54.7-46.36-81.88-69.74c-46.58-40.07-80.99-88.4-96.84-148.32c-16.84-63.67-10.29-124.55,25.45-181.09
		c5.7-9.02,12.04-16.95,24.2-16.8c18.99,0.23,28.99,17.19,18.85,33.23c-9.7,15.34-19.27,30.64-24.1,48.31
		c-2.01,7.35-3.47,14.84-5.38,23.1c69.18,0,137.16,0,205.98,0c-2.92-19.9-8.91-38.22-19.47-54.98c-3.96-6.29-8.29-12.38-11.83-18.9
		c-5-9.19-3.2-18.54,4.23-25.37c6.97-6.4,19.01-8.02,26.54-2.63c4.88,3.49,9.56,7.77,13.01,12.64
		c20.56,29.05,32.17,61.7,34.75,96.98c5.63,76.73-19.42,143.08-70.61,199.89c-5.71,6.34-12.77,11.58-21.98,11.48
		c-9.93-0.11-17.19-5.18-21.51-13.93c-4.3-8.71-1.42-16.35,4.45-23.41c9.49-11.43,19.83-22.34,27.89-34.72
		c9.61-14.76,17.18-30.84,26.55-48.02c-64.2,0-125.42,0-187.41,0c6.88,19.78,17.05,37.12,28.24,53.91
		c18.36,27.52,42.44,49.54,67.81,70.32c30.18,24.72,61.56,48.13,86.4,78.69c29.92,36.82,50.44,77.92,55.93,125.58
		c0.94,8.12,0.44,16.48-0.07,24.68c-0.73,11.81-7.55,19.65-17.8,21.46c-10.84,1.91-21.63-3.41-25.79-13.94
		c-1.93-4.89-4.19-6.22-9.16-6.21c-63.07,0.21-126.14,0.2-189.21,0.28c-2.06,0-4.12,0.32-6.68,0.54
		c0.44,19.71,5.01,37.83,11.74,55.92c5.92,15.9,16.8,21.83,32.33,24.44c78.54,13.18,152.47,2.06,219.04-43.17
		c66.25-45.02,108.36-107.38,122.32-186.44c18.24-103.29-13.49-190.94-88.42-263.55c-2.48-2.4-5-4.77-7.33-7.32
		c-8.15-8.92-8.59-20.7-1.19-29.64c6.26-7.58,20.99-10.72,28.9-4.03c15.77,13.33,31.92,26.73,45.18,42.41
		c38.17,45.15,61.49,97.49,71.42,155.93c4.08,23.99,5.96,48.12,4.15,72.17c-4.58,60.83-21.89,117.75-56.9,168.36
		C646.36,697.19,573.48,743.41,482,760.01c-49.94,9.06-99.62,8.01-148.93-5.8c-19.02-5.33-30.75-17.62-40.05-33.71
		c-18.93-32.78-23.47-68.35-19.5-105.21c5.83-54.03,28.55-100.59,64.86-140.64c6.11-6.74,12.02-14.39,22.66-14.75
		c9.87-0.33,17,4.08,21.53,12.37c4.09,7.48,2.74,15.15-2.25,21.75c-7.51,9.93-15.62,19.4-23.25,29.24
		C354.02,527.17,351.56,531.54,347.99,536.98z M525.82,216.22c-70.78,0-139.7,0-209.48,0c0.86,7.87,2.36,14.96,2.2,22.01
		c-0.18,7.85,3.36,9,10.13,8.99c61.93-0.15,123.87,0,185.8,0.05c2.1,0,4.21,0,7.87,0C523.5,236.93,524.63,226.88,525.82,216.22z
		 M321.49,602.03c66.58,0,132.1,0,198.54,0c-2.36-8.56-4.66-16.61-6.76-24.71c-1.2-4.6-3.84-6.12-8.63-6.12
		c-55.79,0.09-111.58,0.01-167.37-0.18c-4.32-0.01-7.09,1.11-8.31,5.38C326.56,584.74,324.11,593.04,321.49,602.03z"/>
	<path class="st0" d="M85.94,434.86c0.66-66.98,17.84-128.64,55.56-184.18c16.79-24.72,36.8-46.64,59.8-65.64
		c4.35-3.59,10.78-5.79,16.48-6.37c9.86-0.99,17.6,3.95,21.53,13.15c3.81,8.9,1.56,16.95-4.97,24.16
		c-15.32,16.9-31.69,33.05-45.34,51.22c-30.12,40.09-47.31,85.46-52.38,135.67c-6.84,67.73,6.96,130.63,43.93,187.57
		c12.88,19.84,30.26,36.77,45.68,54.95c2.91,3.44,6.42,6.37,9.36,9.79c7.35,8.55,7.78,19.09,1.34,27.69
		c-6.01,8.03-18.97,11.98-27.9,7.4c-5.79-2.97-11.14-7.21-15.89-11.72c-54.92-52.03-90.06-114.83-101.85-189.92
		C88.49,470.87,87.66,452.79,85.94,434.86z"/>
	<path class="st0" d="M421.12,309.7c9.02,0,18.05-0.17,27.07,0.05c8.03,0.2,11.01,4.17,8.9,11.98
		c-3.82,14.17-15.04,19.76-27.89,22.89c-16.14,3.94-35.53-4.86-42.74-19c-5.14-10.08-1.92-15.73,9.18-15.9
		C404.13,309.6,412.63,309.7,421.12,309.7z"/>
	<path class="st0" d="M558.35,429.86c-0.31,10.55-9.9,19.22-20.74,18.76c-9.57-0.41-17.96-9.54-17.54-19.08
		c0.45-10.1,10.03-19.36,19.78-19.11C549.35,410.67,558.63,420.41,558.35,429.86z"/>
</g>
</svg>
